<?xml version="1.0" encoding="UTF-8"?>
<svg id="Livello_1" data-name="Livello 1" xmlns="http://www.w3.org/2000/svg" viewBox="0 0 2000 918">
  <path d="m1996.65,50.57h0c-19.84,89.3-99.05,152.84-190.53,152.84h-305.45c-87.63.76-162.95,66.04-178.78,152.2l-55.93,303.87-3.3,19.01c-22.12,127.55-132.58,220.74-261.87,221.16h-1.59c-129.32-.42-239.75-93.61-261.91-221.16l-3.29-19.01-55.9-303.87c-15.87-86.15-91.19-151.44-178.78-152.2H193.84C102.38,203.4,23.2,139.88,3.36,50.61v-.04c-2.01-9.02,4.85-17.58,14.09-17.58h709.09c88.5.15,124.86,25.56,140.35,112.74l90.95,512.08c8.37,47.11,75.96,47.11,84.33,0l90.95-512.08c15.45-87.18,51.81-112.59,140.35-112.74h709.09c9.24,0,16.11,8.56,14.1,17.58Z"/>
  <path d="m1901.87,345.94c-8.71,47.6-33.78,88.77-68.77,118.12-34.95,29.31-79.83,46.81-128.27,47.07l-250.17,1.51c-57.41,0-106.57,41.09-116.71,97.59l21.09-122.21c16.7-96.64,100.51-167.23,198.59-167.23h323.33c13.29,0,23.33,12.08,20.9,25.15Z"/>
  <path d="m640.92,488.03l21.09,122.21c-10.15-56.5-59.3-97.59-116.71-97.59l-250.17-1.51c-48.4-.27-93.31-17.76-128.3-47.07-34.95-29.35-59.99-70.51-68.73-118.12-2.42-13.07,7.61-25.15,20.9-25.15h323.33c98.08,0,181.89,70.59,198.59,167.23Z"/>
</svg>