{
    "asset" : {
        "generator" : "Khronos glTF Blender I/O v3.4.50",
        "version" : "2.0"
    },
    "scene" : 0,
    "scenes" : [
        {
            "name" : "Scene",
            "nodes" : [
                0
            ]
        }
    ],
    "nodes" : [
        {
            "mesh" : 0,
            "name" : "Assembly_tampone_long_Dx_Unite (1)",
            "scale" : [
                0.8174148797988892,
                0.8174148797988892,
                0.8174148797988892
            ],
            "translation" : [
                0.7603797912597656,
                -1.1653399467468262,
                -0.1472783088684082
            ]
        }
    ],
    "materials" : [
        {
            "doubleSided" : true,
            "name" : "Material",
            "pbrMetallicRoughness" : {
                "baseColorFactor" : [
                    0,
                    0.7481699585914612,
                    0.8000000715255737,
                    1
                ],
                "metallicFactor" : 0,
                "roughnessFactor" : 0.5
            }
        }
    ],
    "meshes" : [
        {
            "name" : "Assembly_tampone_long_Dx_Unite (1)",
            "primitives" : [
                {
                    "attributes" : {
                        "POSITION" : 0,
                        "NORMAL" : 1
                    },
                    "indices" : 2,
                    "material" : 0
                }
            ]
        }
    ],
    "accessors" : [
        {
            "bufferView" : 0,
            "componentType" : 5126,
            "count" : 97786,
            "max" : [
                97.93341064453125,
                80.24798583984375,
                25.64330291748047
            ],
            "min" : [
                -104.98057556152344,
                -37.32762145996094,
                -61.0093994140625
            ],
            "type" : "VEC3"
        },
        {
            "bufferView" : 1,
            "componentType" : 5126,
            "count" : 97786,
            "type" : "VEC3"
        },
        {
            "bufferView" : 2,
            "componentType" : 5125,
            "count" : 99753,
            "type" : "SCALAR"
        }
    ],
    "bufferViews" : [
        {
            "buffer" : 0,
            "byteLength" : 1173432,
            "byteOffset" : 0,
            "target" : 34962
        },
        {
            "buffer" : 0,
            "byteLength" : 1173432,
            "byteOffset" : 1173432,
            "target" : 34962
        },
        {
            "buffer" : 0,
            "byteLength" : 399012,
            "byteOffset" : 2346864,
            "target" : 34963
        }
    ],
    "buffers" : [
        {
            "byteLength" : 2745876,
            "uri" : "data:application/octet-stream;base64,"
        }
    ]
}
