{
    "asset" : {
        "generator" : "Khronos glTF Blender I/O v3.3.32",
        "version" : "2.0"
    },
    "extensionsUsed" : [
        "KHR_materials_clearcoat",
        "KHR_materials_transmission",
        "KHR_materials_specular",
        "KHR_materials_ior"
    ],
    "scene" : 0,
    "scenes" : [
        {
            "name" : "Scene",
            "nodes" : [
                0,
                1,
                2
            ]
        }
    ],
    "nodes" : [
        {
            "mesh" : 0,
            "name" : "tamponeDX_ala.001",
            "rotation" : [
                -0.6621719002723694,
                -0.25234389305114746,
                0.252902626991272,
                0.6587042212486267
            ],
            "scale" : [
                0.14246559143066406,
                0.14246559143066406,
                0.14246560633182526
            ],
            "translation" : [
                -105.5720443725586,
                -8.606786727905273,
                -0.07485723495483398
            ]
        },
        {
            "mesh" : 1,
            "name" : "tamponeDX_fine.001",
            "rotation" : [
                -0.6621719002723694,
                -0.25234389305114746,
                0.252902626991272,
                0.6587042212486267
            ],
            "scale" : [
                0.14246559143066406,
                0.14246559143066406,
                0.14246560633182526
            ],
            "translation" : [
                -5.572046279907227,
                -8.606786727905273,
                -100.07485961914062
            ]
        },
        {
            "mesh" : 2,
            "name" : "tamponeDX_inizio.001",
            "rotation" : [
                -0.6621719002723694,
                -0.25234389305114746,
                0.252902626991272,
                0.6587042212486267
            ],
            "scale" : [
                0.14246559143066406,
                0.14246559143066406,
                0.14246560633182526
            ],
            "translation" : [
                1.8601040840148926,
                26.117401123046875,
                -49.98480987548828
            ]
        }
    ],
    "animations" : [
        {
            "channels" : [
                {
                    "sampler" : 0,
                    "target" : {
                        "node" : 0,
                        "path" : "translation"
                    }
                }
            ],
            "name" : "tamponeDX_ala.001Action",
            "samplers" : [
                {
                    "input" : 9,
                    "interpolation" : "LINEAR",
                    "output" : 10
                }
            ]
        },
        {
            "channels" : [
                {
                    "sampler" : 0,
                    "target" : {
                        "node" : 1,
                        "path" : "translation"
                    }
                }
            ],
            "name" : "tamponeDX_fine.001Action",
            "samplers" : [
                {
                    "input" : 11,
                    "interpolation" : "LINEAR",
                    "output" : 12
                }
            ]
        },
        {
            "channels" : [
                {
                    "sampler" : 0,
                    "target" : {
                        "node" : 2,
                        "path" : "translation"
                    }
                }
            ],
            "name" : "tamponeDX_inizio.001Action",
            "samplers" : [
                {
                    "input" : 13,
                    "interpolation" : "LINEAR",
                    "output" : 14
                }
            ]
        }
    ],
    "materials" : [
        {
            "doubleSided" : true,
            "extensions" : {
                "KHR_materials_clearcoat" : {
                    "clearcoatFactor" : 0.6000000238418579,
                    "clearcoatRoughnessFactor" : 0.30000001192092896
                },
                "KHR_materials_transmission" : {
                    "transmissionFactor" : 1
                },
                "KHR_materials_specular" : {
                    "specularColorFactor" : [
                        1,
                        1,
                        1
                    ]
                },
                "KHR_materials_ior" : {
                    "ior" : 1.4500000476837158
                }
            },
            "name" : "MATERIALE_TAMPONE",
            "pbrMetallicRoughness" : {
                "baseColorFactor" : [
                    0.0008273220155388117,
                    0.0008273220155388117,
                    0.0008273220155388117,
                    1
                ],
                "roughnessFactor" : 0.6000000238418579
            }
        }
    ],
    "meshes" : [
        {
            "name" : "tamponeDX_ala.001",
            "primitives" : [
                {
                    "attributes" : {
                        "POSITION" : 0,
                        "NORMAL" : 1
                    },
                    "indices" : 2,
                    "material" : 0
                }
            ]
        },
        {
            "name" : "tamponeDX_fine.001",
            "primitives" : [
                {
                    "attributes" : {
                        "POSITION" : 3,
                        "NORMAL" : 4
                    },
                    "indices" : 5,
                    "material" : 0
                }
            ]
        },
        {
            "name" : "tamponeDX_inizio.001",
            "primitives" : [
                {
                    "attributes" : {
                        "POSITION" : 6,
                        "NORMAL" : 7
                    },
                    "indices" : 8,
                    "material" : 0
                }
            ]
        }
    ],
    "accessors" : [
        {
            "bufferView" : 0,
            "componentType" : 5126,
            "count" : 4753,
            "max" : [
                310.9896240234375,
                132.76858520507812,
                201.54730224609375
            ],
            "min" : [
                168.65240478515625,
                78.16453552246094,
                132.12411499023438
            ],
            "type" : "VEC3"
        },
        {
            "bufferView" : 1,
            "componentType" : 5126,
            "count" : 4753,
            "type" : "VEC3"
        },
        {
            "bufferView" : 2,
            "componentType" : 5123,
            "count" : 26580,
            "type" : "SCALAR"
        },
        {
            "bufferView" : 3,
            "componentType" : 5126,
            "count" : 3398,
            "max" : [
                220.73223876953125,
                138.73960876464844,
                173.65054321289062
            ],
            "min" : [
                175.73223876953125,
                104.73960876464844,
                128.67031860351562
            ],
            "type" : "VEC3"
        },
        {
            "bufferView" : 4,
            "componentType" : 5126,
            "count" : 3398,
            "type" : "VEC3"
        },
        {
            "bufferView" : 5,
            "componentType" : 5123,
            "count" : 17742,
            "type" : "SCALAR"
        },
        {
            "bufferView" : 6,
            "componentType" : 5126,
            "count" : 1602,
            "max" : [
                19.220901489257812,
                106.50399780273438,
                26.887100219726562
            ],
            "min" : [
                -25.779098510742188,
                23.504003524780273,
                -17.959213256835938
            ],
            "type" : "VEC3"
        },
        {
            "bufferView" : 7,
            "componentType" : 5126,
            "count" : 1602,
            "type" : "VEC3"
        },
        {
            "bufferView" : 8,
            "componentType" : 5123,
            "count" : 5796,
            "type" : "SCALAR"
        },
        {
            "bufferView" : 9,
            "componentType" : 5126,
            "count" : 2,
            "max" : [
                19.208333333333332
            ],
            "min" : [
                19.166666666666668
            ],
            "type" : "SCALAR"
        },
        {
            "bufferView" : 10,
            "componentType" : 5126,
            "count" : 2,
            "type" : "VEC3"
        },
        {
            "bufferView" : 11,
            "componentType" : 5126,
            "count" : 26,
            "max" : [
                9.375
            ],
            "min" : [
                8.333333333333334
            ],
            "type" : "SCALAR"
        },
        {
            "bufferView" : 12,
            "componentType" : 5126,
            "count" : 26,
            "type" : "VEC3"
        },
        {
            "bufferView" : 13,
            "componentType" : 5126,
            "count" : 22,
            "max" : [
                5.25
            ],
            "min" : [
                4.375
            ],
            "type" : "SCALAR"
        },
        {
            "bufferView" : 14,
            "componentType" : 5126,
            "count" : 22,
            "type" : "VEC3"
        }
    ],
    "bufferViews" : [
        {
            "buffer" : 0,
            "byteLength" : 57036,
            "byteOffset" : 0,
            "target" : 34962
        },
        {
            "buffer" : 0,
            "byteLength" : 57036,
            "byteOffset" : 57036,
            "target" : 34962
        },
        {
            "buffer" : 0,
            "byteLength" : 53160,
            "byteOffset" : 114072,
            "target" : 34963
        },
        {
            "buffer" : 0,
            "byteLength" : 40776,
            "byteOffset" : 167232,
            "target" : 34962
        },
        {
            "buffer" : 0,
            "byteLength" : 40776,
            "byteOffset" : 208008,
            "target" : 34962
        },
        {
            "buffer" : 0,
            "byteLength" : 35484,
            "byteOffset" : 248784,
            "target" : 34963
        },
        {
            "buffer" : 0,
            "byteLength" : 19224,
            "byteOffset" : 284268,
            "target" : 34962
        },
        {
            "buffer" : 0,
            "byteLength" : 19224,
            "byteOffset" : 303492,
            "target" : 34962
        },
        {
            "buffer" : 0,
            "byteLength" : 11592,
            "byteOffset" : 322716,
            "target" : 34963
        },
        {
            "buffer" : 0,
            "byteLength" : 8,
            "byteOffset" : 334308
        },
        {
            "buffer" : 0,
            "byteLength" : 24,
            "byteOffset" : 334316
        },
        {
            "buffer" : 0,
            "byteLength" : 104,
            "byteOffset" : 334340
        },
        {
            "buffer" : 0,
            "byteLength" : 312,
            "byteOffset" : 334444
        },
        {
            "buffer" : 0,
            "byteLength" : 88,
            "byteOffset" : 334756
        },
        {
            "buffer" : 0,
            "byteLength" : 264,
            "byteOffset" : 334844
        }
    ],
    "buffers" : [
        {
            "byteLength" : 335108,
            "uri" : "data:application/octet-stream;base64,"
        }
    ]
}
