{
    "asset" : {
        "generator" : "Khronos glTF Blender I/O v3.3.32",
        "version" : "2.0"
    },
    "scene" : 0,
    "scenes" : [
        {
            "name" : "Scene",
            "nodes" : [
                0
            ]
        }
    ],
    "nodes" : [
        {
            "mesh" : 0,
            "name" : "Assembly_tampone_long_Dx_Unite (1)",
            "scale" : [
                0.8174148797988892,
                0.8174148797988892,
                0.8174148797988892
            ],
            "translation" : [
                -149.34190368652344,
                -177.607177734375,
                0
            ]
        }
    ],
    "meshes" : [
        {
            "name" : "Assembly_tampone_long_Dx_Unite (1)",
            "primitives" : [
                {
                    "attributes" : {
                        "POSITION" : 0,
                        "NORMAL" : 1
                    },
                    "indices" : 2
                }
            ]
        }
    ],
    "accessors" : [
        {
            "bufferView" : 0,
            "componentType" : 5126,
            "count" : 98256,
            "max" : [
                269.840576171875,
                347.98046875,
                105.19514465332031
            ],
            "min" : [
                66.92658996582031,
                230.4048614501953,
                18.542442321777344
            ],
            "type" : "VEC3"
        },
        {
            "bufferView" : 1,
            "componentType" : 5126,
            "count" : 98256,
            "type" : "VEC3"
        },
        {
            "bufferView" : 2,
            "componentType" : 5125,
            "count" : 99753,
            "type" : "SCALAR"
        }
    ],
    "bufferViews" : [
        {
            "buffer" : 0,
            "byteLength" : 1179072,
            "byteOffset" : 0,
            "target" : 34962
        },
        {
            "buffer" : 0,
            "byteLength" : 1179072,
            "byteOffset" : 1179072,
            "target" : 34962
        },
        {
            "buffer" : 0,
            "byteLength" : 399012,
            "byteOffset" : 2358144,
            "target" : 34963
        }
    ],
    "buffers" : [
        {
            "byteLength" : 2757156,
            "uri" : "data:application/octet-stream;base64,"
        }
    ]
}
